<svg id="Camada_1" data-name="Camada 1" xmlns="http://www.w3.org/2000/svg" viewBox="0 0 225.87 321.71"><defs><style>.cls-1{fill:#1d1d1b;}</style></defs><title>aboutme_filled</title><path class="cls-1" d="M155.92,97.21a73,73,0,0,1,.38,7.45c0,31.39-19.89,56.83-44.43,56.83s-44.42-25.44-44.42-56.83a74.44,74.44,0,0,1,.49-8.52,56.84,56.84,0,0,0,12.66,1.4A53.16,53.16,0,0,0,104,92.37c6.57-3.24,11.62-7.82,14.29-13.15,5.23,10.78,17.19,18.32,31.12,18.32a39.32,39.32,0,0,0,6.47-.55Z"/><path class="cls-1" d="M219.22,235.44v80.81H5.24V235.44C5.24,218,16.58,203.05,32,200.23l62.79-11.72a9.39,9.39,0,0,0,7.66-9.23V162.83a37.76,37.76,0,0,0,18.81,0v16.44A9.4,9.4,0,0,0,129,188.5l63.47,11.73C207.87,203.05,219.22,218,219.22,235.44Z"/><path class="cls-1" d="M197.61,103.09c9.54.86,0,14.56,0,14.56s-7.58,13.78,0,16.95,0,18.16,0,18.16-8,20.12,0,20.12,0,15.84,0,15.84-3.61,5.46-2.3,9.68c-.51-.12-1-.24-1.56-.34L131,186.13a9.48,9.48,0,0,1-7.59-9.39V162.2c20.27-6.49,35.27-29.65,35.27-57.22,0-1.11-.08-3-.2-4.92s-.28-4-.41-5.56a67,67,0,0,1-8.69.84c-13.93,0-25.89-10.32-31.12-21.1C113,84.89,98.1,95.34,80.6,95.34a69,69,0,0,1-7.6-.51c-2.66-.32-5.26-.74-7.25-1.19C65.42,96.78,65,102.25,65,105a69,69,0,0,0,10,36.38c6.23,10,15,17.45,25,20.75v14.64a9.47,9.47,0,0,1-7.53,9.39L30.77,198.06a27.86,27.86,0,0,0-4.08,1.1c.53-1,1.11-2,1.74-3.16,14.85-26.12,0-22.69,0-22.69s-16,.43,0-16.7,0-22,0-22-14.07-4.19,0-19.95,0-21,0-21-14.07-9.84,0-21,0-24,0-24a5.55,5.55,0,0,1-1.75-4.1c0-6.68,10.52-16.9,30-29.73,0,0,13.42-10.45,29.87,0,17.36,11,38.51,0,38.51,0S140,8,149,14.89s25.15,0,25.15,0,17.46-4.28,23.47,16.7,0,19.7,0,19.7-8,14.13,0,17.55,0,18,0,18S188.07,102.24,197.61,103.09Z"/></svg>