<svg id="Camada_1" data-name="Camada 1" xmlns="http://www.w3.org/2000/svg" viewBox="0 0 224.29 317.76"><defs><style>.cls-1{fill:none;stroke:#1d1d1b;stroke-linecap:round;stroke-linejoin:round;stroke-width:7px;}</style></defs><title>aboutme</title><path class="cls-1" d="M155.58,92.94a73,73,0,0,1,.38,7.44c0,31.39-19.89,56.84-44.43,56.84s-44.42-25.45-44.42-56.84a74.27,74.27,0,0,1,.49-8.51"/><path class="cls-1" d="M67.6,91.87a57.45,57.45,0,0,0,12.66,1.39c17.5,0,32.36-7.66,37.7-18.31"/><path class="cls-1" d="M155.58,92.7a37.59,37.59,0,0,1-6.5.56c-13.93,0-25.89-7.53-31.12-18.31"/><path class="cls-1" d="M120.94,156V175a9.4,9.4,0,0,0,7.68,9.23L192.09,196c15.44,2.82,26.79,17.72,26.79,35.21V312H4.9V231.17c0-17.49,11.34-32.39,26.78-35.21l62.78-11.72a9.39,9.39,0,0,0,7.67-9.23V156"/><path class="cls-1" d="M22.91,199.06a72.28,72.28,0,0,1,5.18-10.45c14.85-25.68,0-22.31,0-22.31s-16,.42,0-16.42,0-21.64,0-21.64-14.07-4.12,0-19.61,0-20.63,0-20.63-14.07-9.68,0-20.63,0-23.57,0-23.57c-6.2-6,4.22-17.69,28.21-33.26h0s13.42-10.28,29.87,0c17.36,10.84,38.51,0,38.51,0s14.93-6.75,24,0,25.15,0,25.15,0S191.26,6.34,197.27,27s0,19.37,0,19.37-8,13.89,0,17.26,0,17.67,0,17.67-9.54,15.16,0,16,0,14.31,0,14.31-7.58,13.55,0,16.67,0,17.85,0,17.85-8,19.78,0,19.78,0,15.58,0,15.58-5.71,8.48-.17,12.36c.55.38,1.09,2.17,1.55,4.17"/></svg>