<svg id="Camada_1" data-name="Camada 1" xmlns="http://www.w3.org/2000/svg" viewBox="0 0 415.1 321.71"><defs><style>.cls-1{fill:none;stroke:#1d1d1b;stroke-linecap:round;stroke-linejoin:round;stroke-width:4px;}.cls-2{fill:#1d1d1b;}</style></defs><title>experiences_filled</title><path class="cls-1" d="M173,36.91V34.24a24,24,0,0,1,24-24h24a24,24,0,0,1,24,24v2.67"/><path class="cls-2" d="M413,42.55v68.21a5.64,5.64,0,0,1-3.11,5l-199,99.84a5.63,5.63,0,0,1-5.06,0L6.81,115.8a5.62,5.62,0,0,1-3.11-5V42.55a5.63,5.63,0,0,1,5.64-5.64h398A5.65,5.65,0,0,1,413,42.55Z"/><path class="cls-2" d="M408.3,121.75V303.89a11.93,11.93,0,0,1-11.93,11.93H23.16a11.94,11.94,0,0,1-11.94-11.93V123.15l194.61,97.62a5.63,5.63,0,0,0,5.06,0Z"/></svg>