<svg id="Camada_1" data-name="Camada 1" xmlns="http://www.w3.org/2000/svg" viewBox="0 0 421.63 317.76"><defs><style>.cls-1{fill:none;stroke:#1d1d1b;stroke-linecap:round;stroke-linejoin:round;stroke-width:7px;}</style></defs><title>experiences</title><path class="cls-1" d="M411.58,112.77V300.05A11.93,11.93,0,0,1,399.65,312H26.44A11.94,11.94,0,0,1,14.5,300.05V114.18"/><path class="cls-1" d="M176.31,33.07V30.4a24,24,0,0,1,24-24h24a24,24,0,0,1,24,24v2.67"/><path class="cls-1" d="M7,106.92a5.62,5.62,0,0,0,3.11,5l199,99.84a5.61,5.61,0,0,0,5,0L413.2,112a5.64,5.64,0,0,0,3.11-5V38.71a5.64,5.64,0,0,0-5.64-5.64h-398A5.63,5.63,0,0,0,7,38.71v68.21"/></svg>